<svg width="85" height="76" viewBox="0 0 85 76" fill="none" xmlns="http://www.w3.org/2000/svg">
<path d="M3.43026 63.4885L3.12036 64.9561L3.12036 64.9561L3.43026 63.4885ZM1.18134 61.9295C0.487165 62.3817 0.290948 63.3109 0.743074 64.0051L8.11089 75.3173C8.56302 76.0114 9.49228 76.2077 10.1864 75.7555C10.8806 75.3034 11.0768 74.3742 10.6247 73.68L4.07554 63.6247L14.1308 57.0755C14.825 56.6234 15.0212 55.6942 14.5691 55C14.1169 54.3058 13.1877 54.1096 12.4935 54.5617L1.18134 61.9295ZM3.74016 62.0208L2.30988 61.7188L1.69008 64.6541L3.12036 64.9561L3.74016 62.0208ZM81.3887 0.955192C80.1904 41.0599 42.9971 70.3101 3.74016 62.0208L3.12036 64.9561C44.2068 73.6316 83.1333 43.0184 84.3873 1.04479L81.3887 0.955192Z" fill="currentColor"/>
</svg>
